<svg width="379" height="51" viewBox="0 0 379 51" fill="none" xmlns="http://www.w3.org/2000/svg">
<path d="M20.3115 50.687C14.401 50.687 9.6792 49.3348 6.146 46.6304C2.6346 43.9259 0.802572 39.9456 0.649902 34.6895H10.6279C10.8024 37.1322 11.762 38.9751 13.5068 40.2183C15.2734 41.4396 17.498 42.0503 20.1807 42.0503C22.7979 42.0503 24.8916 41.4941 26.4619 40.3818C28.054 39.2695 28.8501 37.8192 28.8501 36.0308C28.8501 34.395 28.1304 33.141 26.6909 32.2686C25.2515 31.3743 23.2013 30.611 20.5405 29.9785L15.208 28.6699C11.1077 27.6885 7.86898 26.1291 5.4917 23.9917C3.13623 21.8325 1.9585 18.9536 1.9585 15.355C1.9585 12.4106 2.75456 9.83708 4.34668 7.63428C5.9388 5.40967 8.11979 3.68669 10.8896 2.46533C13.6813 1.22217 16.8547 0.600586 20.4097 0.600586C24.0301 0.600586 27.1925 1.22217 29.897 2.46533C32.6014 3.7085 34.7061 5.43148 36.2109 7.63428C37.7376 9.83708 38.5228 12.3779 38.5664 15.2568H28.6211C28.4466 13.3594 27.6396 11.8763 26.2002 10.8076C24.7607 9.73893 22.8088 9.20459 20.3442 9.20459C17.8361 9.20459 15.9059 9.72803 14.5537 10.7749C13.2015 11.8 12.5254 13.1086 12.5254 14.7007C12.5254 16.4237 13.2778 17.7323 14.7827 18.6265C16.2876 19.4989 18.0978 20.1859 20.2134 20.6875L24.5645 21.7671C27.3997 22.3996 29.9188 23.3265 32.1216 24.5479C34.3244 25.7474 36.0583 27.2959 37.3232 29.1934C38.5882 31.069 39.2207 33.359 39.2207 36.0635C39.2207 40.5345 37.5522 44.0895 34.2153 46.7285C30.8784 49.3675 26.2438 50.687 20.3115 50.687ZM66.4787 1.25488V50H56.2062V1.25488H66.4787ZM106.855 50.6543C102.515 50.6543 98.633 49.6729 95.2089 47.71C91.7847 45.7471 89.0803 42.9009 87.0956 39.1714C85.1327 35.4419 84.1513 30.9382 84.1513 25.6602C84.1513 20.3385 85.1436 15.813 87.1283 12.0835C89.1348 8.354 91.8502 5.50781 95.2743 3.54492C98.7203 1.58203 102.581 0.600586 106.855 0.600586C110.628 0.600586 114.02 1.2985 117.03 2.69434C120.061 4.09017 122.537 6.10758 124.456 8.74658C126.375 11.3856 127.553 14.5807 127.989 18.332H117.586C117.193 15.6494 116.048 13.5448 114.151 12.0181C112.253 10.4696 109.898 9.69531 107.084 9.69531C103.333 9.69531 100.312 11.0911 98.0224 13.8828C95.7323 16.6527 94.5873 20.5785 94.5873 25.6602C94.5873 30.8509 95.7323 34.7985 98.0224 37.5029C100.334 40.2074 103.344 41.5596 107.052 41.5596C109.778 41.5596 112.09 40.8398 113.987 39.4004C115.906 37.9609 117.106 35.9435 117.586 33.3481H127.989C127.618 36.3361 126.55 39.1496 124.783 41.7886C123.038 44.4276 120.65 46.5649 117.619 48.2007C114.609 49.8364 111.021 50.6543 106.855 50.6543ZM167.417 50.6543C163.099 50.6543 159.217 49.6729 155.771 47.71C152.325 45.7471 149.598 42.9009 147.592 39.1714C145.585 35.4419 144.582 30.9382 144.582 25.6602C144.582 20.3385 145.585 15.813 147.592 12.0835C149.598 8.354 152.325 5.50781 155.771 3.54492C159.217 1.58203 163.099 0.600586 167.417 0.600586C171.735 0.600586 175.607 1.58203 179.031 3.54492C182.477 5.50781 185.203 8.354 187.21 12.0835C189.216 15.813 190.219 20.3385 190.219 25.6602C190.219 30.9818 189.216 35.5073 187.21 39.2368C185.203 42.9445 182.477 45.7798 179.031 47.7427C175.607 49.6838 171.735 50.6543 167.417 50.6543ZM155.018 25.6602C155.018 30.8073 156.141 34.744 158.388 37.4702C160.656 40.1965 163.666 41.5596 167.417 41.5596C171.147 41.5596 174.135 40.1965 176.381 37.4702C178.649 34.744 179.783 30.8073 179.783 25.6602C179.783 20.4912 178.649 16.5436 176.381 13.8174C174.135 11.0693 171.147 9.69531 167.417 9.69531C163.666 9.69531 160.656 11.0693 158.388 13.8174C156.141 16.5436 155.018 20.4912 155.018 25.6602ZM207.925 1.25488H220.618L234.031 34.0024H234.587L248.033 1.25488H260.825V50H250.716V18.2666H250.356L237.695 49.771H230.858L218.328 18.2012H217.903V50H207.925V1.25488ZM279.348 50V1.25488H298.846C304.211 1.25488 308.246 2.43262 310.95 4.78809C313.655 7.12174 315.007 10.1097 315.007 13.752C315.007 16.609 314.167 18.9318 312.488 20.7202C310.83 22.4868 308.736 23.6536 306.207 24.2207V24.7114C308.06 24.7987 309.794 25.3221 311.408 26.2817C313.044 27.2414 314.363 28.5936 315.367 30.3384C316.392 32.0614 316.904 34.1224 316.904 36.5215C316.904 39.0951 316.272 41.4069 315.007 43.457C313.742 45.4854 311.866 47.0884 309.38 48.2661C306.894 49.422 303.818 50 300.154 50H279.348ZM297.275 21.6689C299.369 21.6689 301.114 21.1128 302.51 20.0005C303.906 18.8882 304.604 17.3724 304.604 15.4531C304.604 13.7083 303.982 12.3016 302.739 11.2329C301.496 10.1424 299.74 9.59717 297.472 9.59717H289.62V21.6689H297.275ZM298.028 41.5923C300.907 41.5923 303 41.0361 304.309 39.9238C305.639 38.8115 306.305 37.3394 306.305 35.5073C306.305 33.5008 305.585 31.8542 304.146 30.5674C302.706 29.2588 300.754 28.6045 298.29 28.6045H289.62V41.5923H298.028ZM355.645 50.6543C351.327 50.6543 347.445 49.6729 343.999 47.71C340.553 45.7471 337.827 42.9009 335.82 39.1714C333.813 35.4419 332.81 30.9382 332.81 25.6602C332.81 20.3385 333.813 15.813 335.82 12.0835C337.827 8.354 340.553 5.50781 343.999 3.54492C347.445 1.58203 351.327 0.600586 355.645 0.600586C359.964 0.600586 363.835 1.58203 367.259 3.54492C370.705 5.50781 373.431 8.354 375.438 12.0835C377.444 15.813 378.447 20.3385 378.447 25.6602C378.447 30.9818 377.444 35.5073 375.438 39.2368C373.431 42.9445 370.705 45.7798 367.259 47.7427C363.835 49.6838 359.964 50.6543 355.645 50.6543ZM343.246 25.6602C343.246 30.8073 344.369 34.744 346.616 37.4702C348.884 40.1965 351.894 41.5596 355.645 41.5596C359.375 41.5596 362.363 40.1965 364.609 37.4702C366.877 34.744 368.011 30.8073 368.011 25.6602C368.011 20.4912 366.877 16.5436 364.609 13.8174C362.363 11.0693 359.375 9.69531 355.645 9.69531C351.894 9.69531 348.884 11.0693 346.616 13.8174C344.369 16.5436 343.246 20.4912 343.246 25.6602Z" fill="white"/>
</svg>
